<svg width="272" height="36" viewBox="0 0 272 36" fill="none" xmlns="http://www.w3.org/2000/svg">
<path d="M35.0216 14.0996L32.6342 27.6384C32.3858 29.0495 31.0711 30.5997 29.7157 31.0901L16.7015 35.7771C15.3461 36.2696 13.3313 35.912 12.2264 34.9913L1.61248 26.1375C0.501199 25.2125 -0.196832 23.3068 0.0494058 21.8958L2.43899 8.35052C2.68736 6.93947 4.00206 5.38924 5.35744 4.8989L18.3631 0.213956C19.7185 -0.269956 21.7333 0.0876249 22.8403 1.0062L33.4564 9.84936C34.5634 10.7808 35.2657 12.6907 35.0216 14.0996Z" fill="#14C8FF"/>
<path d="M16.5429 20.6797C16.256 22.1636 16.1768 22.9987 17.6778 22.9987H21.0437L20.3414 26.0392H16.3031C13.9178 26.0392 12.3697 23.7674 12.9885 20.5705C13.2326 19.3137 13.9885 15.907 13.9885 15.907H11.7959L12.2563 13.5367C14.2514 12.744 15.9455 11.3421 17.0975 9.53052H18.7141L18.0011 13.1534H23.0008L22.4569 15.8813H17.4572L16.5429 20.6797Z" fill="white"/>
<path d="M146.355 13.7808C145.375 12.8001 143.927 12.3034 142.056 12.3034C140.582 12.2889 139.121 12.5905 137.773 13.1877C137.579 13.2709 137.413 13.4094 137.296 13.586C137.179 13.7625 137.117 13.9695 137.116 14.1812C137.125 14.4588 137.242 14.7218 137.442 14.9148C137.642 15.1078 137.909 15.2155 138.187 15.2154C138.334 15.211 138.479 15.179 138.615 15.1212C139.632 14.6583 140.737 14.4196 141.855 14.421C144.839 14.421 145.467 16.2089 145.467 17.7077V17.8748C144.25 17.5426 142.992 17.3811 141.73 17.3951C138.212 17.3951 136.028 19.0653 136.028 21.7567V21.806C136.028 24.5724 138.546 26.0199 141.037 26.0199C143.203 26.0199 144.606 25.1013 145.467 24.1784V24.7609C145.465 24.9091 145.493 25.0562 145.549 25.1933C145.606 25.3304 145.689 25.4546 145.795 25.5583C145.901 25.662 146.027 25.7431 146.165 25.7967C146.304 25.8503 146.451 25.8752 146.599 25.87C146.751 25.8718 146.901 25.8429 147.041 25.785C147.181 25.7271 147.308 25.6414 147.414 25.5332C147.52 25.4249 147.602 25.2962 147.657 25.155C147.712 25.0138 147.737 24.863 147.732 24.7116V17.6842C147.743 16.0098 147.27 14.6972 146.355 13.7808ZM141.411 24.0757C139.957 24.0757 138.396 23.3434 138.396 21.7203V21.6711C138.396 20.1423 139.718 19.228 141.932 19.228C143.136 19.2279 144.334 19.3944 145.492 19.7226V20.7932C145.492 22.6732 143.739 24.0757 141.411 24.0757Z" fill="white"/>
<path d="M160.627 21.881V21.9302C160.627 24.3605 158.699 25.9985 155.841 25.9985C154.024 25.9676 152.259 25.3909 150.775 24.3434C150.652 24.2542 150.55 24.1395 150.475 24.0072C150.384 23.8442 150.336 23.6607 150.336 23.474C150.34 23.1965 150.454 22.9319 150.652 22.738C150.851 22.5442 151.118 22.437 151.396 22.4398C151.614 22.4357 151.828 22.5051 152.002 22.6368C153.287 23.5083 154.616 23.9558 155.942 23.9558C157.402 23.9558 158.385 23.2235 158.385 22.1336V22.0844C158.385 20.9688 157.064 20.5128 155.336 20.0288C153.477 19.5021 150.933 18.7784 150.933 16.1982V16.1468C150.933 13.8579 152.818 12.2584 155.518 12.2584C156.987 12.2889 158.428 12.6722 159.719 13.3761C159.892 13.4735 160.036 13.614 160.139 13.784C160.241 13.954 160.298 14.1477 160.303 14.3461C160.299 14.6236 160.186 14.8883 159.987 15.0821C159.788 15.2759 159.521 15.3832 159.243 15.3803C159.064 15.379 158.887 15.3373 158.725 15.2582C157.74 14.662 156.619 14.3281 155.468 14.2883C154.111 14.2883 153.199 14.9499 153.199 15.937V15.9863C153.199 17.0333 154.698 17.4851 156.301 17.9754L156.351 17.9904C158.053 18.5107 160.627 19.2816 160.627 21.881Z" fill="white"/>
<path d="M172.746 21.881V21.9302C172.746 24.3605 170.818 25.9985 167.962 25.9985C166.145 25.9677 164.379 25.391 162.894 24.3434C162.772 24.254 162.67 24.1394 162.596 24.0072C162.504 23.8447 162.456 23.6608 162.457 23.474C162.461 23.1969 162.574 22.9326 162.773 22.7388C162.971 22.545 163.238 22.4375 163.515 22.4398C163.733 22.435 163.947 22.5045 164.121 22.6368C165.405 23.5083 166.737 23.9558 168.061 23.9558C169.523 23.9558 170.504 23.2235 170.504 22.1336V22.0844C170.504 20.9688 169.185 20.5128 167.457 20.0288C165.598 19.5021 163.052 18.7784 163.052 16.1982V16.1468C163.052 13.8579 164.939 12.2584 167.639 12.2584C169.108 12.2887 170.548 12.672 171.838 13.3761C172.011 13.4731 172.156 13.6136 172.258 13.7837C172.361 13.9537 172.417 14.1476 172.422 14.3461C172.419 14.6234 172.306 14.8881 172.107 15.082C171.909 15.2759 171.642 15.3831 171.364 15.3803C171.185 15.3796 171.007 15.3379 170.846 15.2582C169.861 14.662 168.74 14.3281 167.59 14.2883C166.232 14.2883 165.32 14.9499 165.32 15.937V15.9863C165.32 17.0333 166.819 17.4851 168.422 17.9754L168.472 17.9904C170.174 18.5107 172.746 19.2816 172.746 21.881Z" fill="white"/>
<path d="M182.002 12.2049C181.09 12.1957 180.186 12.3684 179.343 12.713C178.499 13.0575 177.732 13.5669 177.088 14.2114C176.443 14.8558 175.934 15.6224 175.59 16.4661C175.245 17.3099 175.072 18.2139 175.081 19.1252V19.1766C175.088 21.0086 175.823 22.7628 177.123 24.0534C178.423 25.344 180.183 26.0652 182.015 26.0584C183.847 26.0516 185.601 25.3173 186.891 24.0171C188.182 22.7169 188.903 20.9572 188.896 19.1252V19.076C188.904 18.1694 188.731 17.2704 188.388 16.4316C188.044 15.5927 187.536 14.831 186.894 14.1911C186.251 13.5511 185.488 13.0458 184.648 12.7047C183.808 12.3636 182.908 12.1937 182.002 12.2049ZM182.002 23.9044C179.46 23.9044 177.471 21.806 177.471 19.1252V19.076C177.471 16.3674 179.398 14.3225 181.95 14.3225C184.503 14.3225 186.498 16.4294 186.498 19.1231V19.1745C186.498 21.8702 184.571 23.9022 182.002 23.9022V23.9044Z" fill="white"/>
<path d="M203.221 23.1721C203.219 23.4522 203.108 23.7205 202.911 23.9194C201.461 25.369 199.875 26.0435 197.915 26.0435C196.105 26.0287 194.374 25.298 193.1 24.0109C191.827 22.7239 191.115 20.9851 191.119 19.1745V19.1231C191.119 15.3075 194.168 12.2027 197.915 12.2027C199.725 12.1791 201.471 12.8726 202.772 14.132C202.888 14.2362 202.981 14.364 203.044 14.5069C203.107 14.6497 203.139 14.8044 203.138 14.9606C203.137 15.2608 203.018 15.5486 202.805 15.7609C202.593 15.9732 202.305 16.0927 202.005 16.0933C201.728 16.092 201.461 15.9951 201.247 15.8192C200.401 15.042 199.414 14.3204 197.883 14.3204C195.425 14.3204 193.502 16.4081 193.502 19.0738V19.1231C193.502 21.8039 195.481 23.9023 197.999 23.9023C199.236 23.9023 200.354 23.4098 201.425 22.4034C201.513 22.3073 201.62 22.2304 201.74 22.1773C201.859 22.1243 201.988 22.0963 202.119 22.0951C202.406 22.0972 202.681 22.2105 202.887 22.4113C203.093 22.6122 203.212 22.8848 203.221 23.1721Z" fill="white"/>
<path d="M208.786 8.66766V8.99312C208.786 9.69543 208.201 10.2243 207.428 10.2243C206.656 10.2243 206.097 9.69543 206.097 8.99312V8.66766C206.097 7.9525 206.658 7.43433 207.428 7.43433C208.199 7.43433 208.786 7.9525 208.786 8.66766Z" fill="white"/>
<path d="M208.611 13.5345V24.688C208.616 24.8425 208.59 24.9964 208.534 25.1405C208.478 25.2845 208.394 25.4158 208.286 25.5262C208.177 25.6367 208.048 25.7241 207.905 25.7832C207.763 25.8423 207.609 25.8718 207.455 25.87C207.299 25.8717 207.144 25.8423 207 25.7836C206.856 25.7248 206.725 25.6378 206.614 25.5278C206.504 25.4177 206.417 25.2867 206.358 25.1425C206.299 24.9984 206.269 24.8438 206.271 24.688V13.5345C206.264 13.3767 206.289 13.219 206.345 13.0712C206.401 12.9233 206.486 12.7883 206.595 12.6742C206.704 12.5601 206.836 12.4693 206.981 12.4072C207.126 12.3452 207.283 12.3132 207.441 12.3132C207.599 12.3132 207.755 12.3452 207.901 12.4072C208.046 12.4693 208.177 12.5601 208.286 12.6742C208.396 12.7883 208.481 12.9233 208.537 13.0712C208.592 13.219 208.618 13.3767 208.611 13.5345Z" fill="white"/>
<path d="M221.985 13.7808C221.004 12.8001 219.559 12.3033 217.688 12.3033C216.213 12.2892 214.753 12.5907 213.405 13.1876C213.211 13.2715 213.046 13.4101 212.929 13.5866C212.813 13.7631 212.751 13.9698 212.75 14.1812C212.759 14.4565 212.874 14.7177 213.072 14.9103C213.269 15.103 213.532 15.2122 213.808 15.2154C213.955 15.2109 214.1 15.179 214.236 15.1212C215.254 14.6581 216.359 14.4194 217.478 14.421C220.463 14.421 221.088 16.2089 221.088 17.7077V17.8747C219.871 17.5424 218.615 17.3809 217.354 17.3951C213.836 17.3951 211.649 19.0652 211.649 21.7567V21.806C211.649 24.5724 214.17 26.0199 216.658 26.0199C218.825 26.0199 220.227 25.1013 221.088 24.1784V24.7608C221.086 24.909 221.114 25.056 221.171 25.1929C221.227 25.3299 221.311 25.4539 221.417 25.5576C221.523 25.6613 221.649 25.7424 221.787 25.7961C221.925 25.8498 222.072 25.8749 222.221 25.87C222.372 25.8718 222.522 25.8429 222.662 25.785C222.802 25.7271 222.929 25.6415 223.035 25.5332C223.141 25.425 223.224 25.2964 223.279 25.1552C223.334 25.0139 223.36 24.8631 223.355 24.7116V17.6842C223.366 16.0097 222.899 14.6972 221.985 13.7808ZM217.041 24.0757C215.589 24.0757 214.026 23.3434 214.026 21.7203V21.6711C214.026 20.1423 215.347 19.228 217.563 19.228C218.767 19.2282 219.966 19.3946 221.124 19.7226V20.7932C221.124 22.6732 219.368 24.0757 217.041 24.0757Z" fill="white"/>
<path d="M234.046 24.6624C234.044 24.8713 233.976 25.0743 233.854 25.2434C233.731 25.4125 233.559 25.5394 233.361 25.6067C232.737 25.8573 232.07 25.9804 231.398 25.9685C228.92 25.9685 227.556 24.6067 227.556 22.1293V14.5945H226.728C226.449 14.5874 226.184 14.4734 225.987 14.2761C225.79 14.0788 225.676 13.8133 225.67 13.5346C225.673 13.2551 225.786 12.988 225.983 12.7903C226.181 12.5927 226.448 12.4801 226.728 12.4768H227.556V9.66113C227.553 9.50694 227.581 9.35367 227.638 9.21028C227.694 9.06689 227.779 8.93625 227.887 8.82601C227.995 8.71577 228.124 8.62813 228.266 8.56821C228.408 8.50829 228.561 8.4773 228.715 8.47705C229.027 8.48149 229.326 8.60773 229.546 8.8289C229.767 9.05006 229.893 9.34867 229.897 9.66113V12.4768H233.012C233.295 12.4773 233.566 12.5881 233.769 12.7856C233.971 12.9832 234.088 13.2519 234.096 13.5346C234.094 13.6753 234.065 13.8145 234.01 13.944C233.955 14.0735 233.874 14.1908 233.774 14.2892C233.673 14.3877 233.554 14.4653 233.423 14.5177C233.293 14.5701 233.153 14.5962 233.012 14.5945H229.897V21.8745C229.897 23.185 230.515 23.8016 231.845 23.8016C232.151 23.8021 232.455 23.7603 232.749 23.6774C232.834 23.6506 232.923 23.6341 233.012 23.6282C233.286 23.6287 233.549 23.7379 233.743 23.9317C233.937 24.1255 234.046 24.3883 234.046 24.6624Z" fill="white"/>
<path d="M239.6 8.66766V8.99312C239.6 9.69543 239.018 10.2243 238.243 10.2243C237.468 10.2243 236.911 9.69543 236.911 8.99312V8.66766C236.911 7.9525 237.472 7.43433 238.243 7.43433C239.014 7.43433 239.6 7.9525 239.6 8.66766Z" fill="white"/>
<path d="M239.435 13.5345V24.688C239.44 24.8426 239.414 24.9966 239.357 25.1406C239.301 25.2847 239.217 25.4159 239.108 25.5264C239 25.6368 238.871 25.7242 238.728 25.7832C238.585 25.8423 238.431 25.8718 238.277 25.87C238.121 25.8717 237.967 25.8423 237.822 25.7835C237.678 25.7247 237.547 25.6377 237.437 25.5276C237.327 25.4175 237.24 25.2866 237.181 25.1424C237.122 24.9982 237.093 24.8437 237.095 24.688V13.5345C237.088 13.3767 237.113 13.219 237.169 13.0712C237.225 12.9233 237.31 12.7883 237.419 12.6742C237.529 12.5601 237.66 12.4693 237.805 12.4072C237.951 12.3452 238.107 12.3132 238.265 12.3132C238.423 12.3132 238.579 12.3452 238.725 12.4072C238.87 12.4693 239.001 12.5601 239.111 12.6742C239.22 12.7883 239.305 12.9233 239.361 13.0712C239.417 13.219 239.442 13.3767 239.435 13.5345Z" fill="white"/>
<path d="M249.579 12.2049C248.668 12.1957 247.764 12.3685 246.92 12.713C246.076 13.0575 245.31 13.567 244.665 14.2114C244.021 14.8558 243.511 15.6224 243.167 16.4661C242.822 17.3099 242.649 18.2139 242.659 19.1252V19.1766C242.665 21.0086 243.4 22.7629 244.7 24.0535C246 25.344 247.76 26.0653 249.592 26.0585C251.424 26.0516 253.178 25.3173 254.469 24.0171C255.759 22.7169 256.48 20.9572 256.474 19.1252V19.076C256.482 18.1694 256.309 17.2702 255.965 16.4312C255.621 15.5923 255.114 14.8304 254.471 14.1904C253.829 13.5504 253.066 13.0451 252.225 12.7041C251.385 12.3632 250.486 12.1934 249.579 12.2049ZM249.579 23.9044C247.039 23.9044 245.048 21.806 245.048 19.1252V19.076C245.048 16.3674 246.975 14.3225 249.53 14.3225C252.084 14.3225 254.084 16.4316 254.084 19.1252V19.1766C254.084 21.8703 252.146 23.9023 249.579 23.9023V23.9044Z" fill="white"/>
<path d="M271.153 17.5579V24.6881C271.16 24.846 271.135 25.0036 271.079 25.1515C271.023 25.2993 270.938 25.4344 270.829 25.5485C270.719 25.6626 270.588 25.7534 270.443 25.8154C270.297 25.8774 270.141 25.9094 269.983 25.9094C269.825 25.9094 269.668 25.8774 269.523 25.8154C269.378 25.7534 269.247 25.6626 269.137 25.5485C269.028 25.4344 268.943 25.2993 268.887 25.1515C268.831 25.0036 268.806 24.846 268.813 24.6881V18.0311C268.813 15.7379 267.564 14.3697 265.475 14.3697C263.333 14.3697 261.835 15.937 261.835 18.181V24.6881C261.839 24.8427 261.813 24.9966 261.757 25.1407C261.701 25.2848 261.616 25.416 261.508 25.5264C261.399 25.6368 261.27 25.7242 261.127 25.7833C260.984 25.8423 260.831 25.8719 260.676 25.87C260.52 25.8718 260.366 25.8424 260.222 25.7836C260.078 25.7248 259.947 25.6378 259.837 25.5277C259.726 25.4176 259.639 25.2866 259.581 25.1424C259.522 24.9983 259.493 24.8438 259.494 24.6881V13.5346C259.487 13.3767 259.513 13.2191 259.568 13.0712C259.624 12.9234 259.709 12.7883 259.819 12.6742C259.928 12.5601 260.059 12.4693 260.205 12.4073C260.35 12.3453 260.506 12.3133 260.664 12.3133C260.822 12.3133 260.979 12.3453 261.124 12.4073C261.269 12.4693 261.401 12.5601 261.51 12.6742C261.619 12.7883 261.705 12.9234 261.76 13.0712C261.816 13.2191 261.841 13.3767 261.835 13.5346V14.2326C262.862 12.8858 264.267 12.2028 266.016 12.2028C269.149 12.2049 271.153 14.3054 271.153 17.5579Z" fill="white"/>
<path d="M62.2191 12.192C58.6454 12.192 55.8447 15.2218 55.8447 19.0888V19.1381C55.8447 23.0693 58.6925 26.0327 62.4675 26.0327C64.4802 26.0327 66.0197 25.4182 67.45 24.0436C67.6149 23.9073 67.733 23.723 67.7879 23.5163C67.8428 23.3096 67.8318 23.0909 67.7563 22.8909C67.6808 22.6908 67.5446 22.5193 67.3668 22.4004C67.1891 22.2815 66.9786 22.2212 66.7648 22.2278C66.5078 22.234 66.2619 22.3337 66.0732 22.5083C65.1261 23.4369 63.8495 23.952 62.5231 23.9408C60.2642 23.9408 58.5705 22.3777 58.2407 20.0224H67.2894C67.5832 20.0224 67.865 19.9058 68.073 19.6983C68.2809 19.4907 68.398 19.2092 68.3986 18.9154C68.3943 15.5751 66.2724 12.192 62.2191 12.192ZM58.2407 18.1788C58.5619 15.8449 60.1528 14.2369 62.1741 14.2369C64.675 14.2369 65.7992 16.2303 66.0283 18.1788H58.2407Z" fill="white"/>
<path d="M72.6749 7.04883C72.3646 7.05278 72.0686 7.17969 71.8518 7.40169C71.635 7.62369 71.5152 7.92264 71.5186 8.23291V24.6752C71.5169 24.8309 71.5463 24.9853 71.6051 25.1295C71.6639 25.2737 71.7509 25.4047 71.861 25.5148C71.9711 25.6249 72.1021 25.7119 72.2462 25.7707C72.3904 25.8295 72.5449 25.8589 72.7006 25.8571C72.8552 25.8589 73.0086 25.8294 73.1515 25.7704C73.2944 25.7113 73.4239 25.6239 73.5321 25.5135C73.6404 25.4031 73.7251 25.2718 73.7813 25.1278C73.8375 24.9837 73.8639 24.8297 73.859 24.6752V8.23291C73.8584 7.91905 73.7335 7.6182 73.5115 7.39626C73.2896 7.17433 72.9887 7.04939 72.6749 7.04883Z" fill="white"/>
<path d="M88.0995 22.0759C87.9689 22.0767 87.8399 22.1045 87.7205 22.1576C87.6011 22.2107 87.494 22.2878 87.4058 22.3842C86.3352 23.397 85.2132 23.883 83.9799 23.883C81.4533 23.883 79.4834 21.7847 79.4834 19.1039V19.0568C79.4834 16.391 81.4104 14.3033 83.8643 14.3033C85.3974 14.3033 86.3823 15.0163 87.2302 15.8022C87.4438 15.9781 87.7115 16.0749 87.9882 16.0762C88.2884 16.0757 88.5762 15.9561 88.7885 15.7438C89.0008 15.5315 89.1203 15.2438 89.1209 14.9435C89.1219 14.7872 89.0896 14.6324 89.0261 14.4895C88.9626 14.3466 88.8693 14.2189 88.7526 14.1149C87.4512 12.8534 85.7022 12.1602 83.8899 12.1878C80.1428 12.1878 77.0938 15.2904 77.0938 19.106V19.1574C77.0892 20.968 77.8014 22.7068 79.0749 23.9939C80.3483 25.281 82.0794 26.0117 83.8899 26.0264C85.847 26.0264 87.4358 25.3519 88.8832 23.9023C89.0813 23.7038 89.1935 23.4355 89.1958 23.155C89.1871 22.8687 89.0682 22.5967 88.864 22.3957C88.6598 22.1947 88.386 22.0801 88.0995 22.0759Z" fill="white"/>
<path d="M97.8103 12.1921C96.8992 12.1829 95.9953 12.3556 95.1517 12.7C94.3081 13.0444 93.5417 13.5536 92.8973 14.1978C92.2528 14.8421 91.7434 15.6083 91.3987 16.4518C91.0541 17.2953 90.8811 18.1991 90.89 19.1103V19.1617C90.9411 20.9641 91.6947 22.6751 92.9899 23.9295C94.2852 25.1838 96.0195 25.8822 97.8226 25.8755C99.6256 25.8688 101.355 25.1575 102.641 23.8936C103.926 22.6296 104.667 20.913 104.705 19.1103V19.0568C104.712 18.1507 104.539 17.2522 104.195 16.414C103.851 15.5758 103.343 14.8147 102.7 14.1754C102.058 13.536 101.295 13.0313 100.455 12.6907C99.6156 12.3502 98.7164 12.1806 97.8103 12.1921ZM102.307 19.1617C102.307 21.8574 100.38 23.8894 97.8103 23.8894C95.2409 23.8894 93.2817 21.7911 93.2817 19.1103V19.0568C93.2817 16.3481 95.2088 14.3033 97.7611 14.3033C100.313 14.3033 102.315 16.4145 102.315 19.106L102.307 19.1617Z" fill="white"/>
<path d="M109.062 7.42139C108.291 7.42139 107.73 7.9417 107.73 8.65472V8.97804C107.73 9.68035 108.302 10.2092 109.062 10.2092C109.822 10.2092 110.42 9.68035 110.42 8.97804V8.65472C110.42 7.9417 109.844 7.42139 109.062 7.42139Z" fill="white"/>
<path d="M109.062 12.3398C108.751 12.3437 108.455 12.4706 108.238 12.6925C108.021 12.9145 107.901 13.2134 107.903 13.5239V24.6752C107.902 24.8311 107.931 24.9858 107.99 25.1301C108.049 25.2744 108.136 25.4055 108.246 25.5156C108.357 25.6257 108.488 25.7127 108.632 25.7714C108.777 25.83 108.932 25.8592 109.087 25.8572C109.242 25.859 109.395 25.8295 109.538 25.7704C109.681 25.7113 109.81 25.6239 109.918 25.5134C110.026 25.403 110.111 25.2717 110.167 25.1277C110.223 24.9836 110.249 24.8297 110.244 24.6752V13.5239C110.246 13.368 110.217 13.2133 110.158 13.0689C110.099 12.9245 110.012 12.7932 109.902 12.6829C109.792 12.5726 109.661 12.4854 109.517 12.4265C109.372 12.3675 109.218 12.3381 109.062 12.3398Z" fill="white"/>
<path d="M120.785 12.192C119.036 12.192 117.631 12.8729 116.603 14.2197V13.5238C116.61 13.366 116.585 13.2083 116.529 13.0605C116.473 12.9126 116.388 12.7776 116.279 12.6635C116.169 12.5494 116.038 12.4586 115.893 12.3965C115.747 12.3345 115.591 12.3025 115.433 12.3025C115.275 12.3025 115.119 12.3345 114.973 12.3965C114.828 12.4586 114.697 12.5494 114.587 12.6635C114.478 12.7776 114.393 12.9126 114.337 13.0605C114.281 13.2083 114.256 13.366 114.263 13.5238V24.6752C114.261 24.8309 114.29 24.9854 114.349 25.1296C114.408 25.2737 114.495 25.4047 114.605 25.5148C114.715 25.6249 114.846 25.7119 114.99 25.7707C115.135 25.8295 115.289 25.8589 115.445 25.8572C115.599 25.859 115.753 25.8295 115.896 25.7704C116.039 25.7113 116.168 25.624 116.276 25.5135C116.385 25.4031 116.469 25.2719 116.525 25.1278C116.582 24.9837 116.608 24.8298 116.603 24.6752V18.1681C116.603 15.9241 118.102 14.3589 120.243 14.3589C122.333 14.3589 123.581 15.7271 123.581 18.0182V24.6752C123.575 24.8331 123.6 24.9907 123.656 25.1386C123.711 25.2864 123.796 25.4215 123.906 25.5356C124.015 25.6497 124.146 25.7405 124.292 25.8025C124.437 25.8645 124.593 25.8965 124.751 25.8965C124.909 25.8965 125.066 25.8645 125.211 25.8025C125.357 25.7405 125.488 25.6497 125.597 25.5356C125.706 25.4215 125.792 25.2864 125.847 25.1386C125.903 24.9907 125.928 24.8331 125.922 24.6752V17.5579C125.917 14.2925 123.902 12.192 120.785 12.192Z" fill="white"/>
<path d="M45.8389 14.5859H47.6482V22.1187C47.6482 24.596 49.0122 25.96 51.4895 25.96C52.1616 25.9707 52.829 25.8477 53.453 25.5981C53.6506 25.5301 53.8223 25.4026 53.9446 25.2332C54.0669 25.0638 54.1337 24.8606 54.1361 24.6517C54.1363 24.5158 54.1098 24.3812 54.0579 24.2556C54.006 24.13 53.9299 24.0159 53.8338 23.9198C53.7377 23.8237 53.6236 23.7475 53.498 23.6957C53.3724 23.6438 53.2378 23.6172 53.1019 23.6175C53.0124 23.6232 52.924 23.6397 52.8385 23.6667C52.5441 23.7516 52.2391 23.7942 51.9328 23.7931C50.6052 23.7931 49.9864 23.1807 49.9864 21.866V14.5859H53.1019C53.2425 14.5876 53.382 14.5616 53.5126 14.5094C53.6431 14.4571 53.7621 14.3797 53.8627 14.2815C53.9633 14.1832 54.0436 14.0662 54.0989 13.9369C54.1543 13.8077 54.1836 13.6688 54.1853 13.5282C54.1803 13.2436 54.0641 12.9722 53.8617 12.7722C53.6592 12.5721 53.3865 12.4592 53.1019 12.4576H49.9886V10.4919C49.9886 10.3398 49.9281 10.1938 49.8205 10.0862C49.7129 9.97856 49.5669 9.9181 49.4147 9.9181C49.2895 9.91731 49.1675 9.95797 49.0678 10.0337L48.9672 10.1365L47.6525 11.4341L46.5819 12.4854L45.7939 13.2755" fill="white"/>
</svg>
