<?xml version="1.0" encoding="UTF-8"?>
<svg id="Layer_2" data-name="Layer 2" xmlns="http://www.w3.org/2000/svg" viewBox="0 0 175.07 175.07">
  <defs>
    <style>
      .cls-1 {
        fill: #00aeef;
      }

      .cls-2 {
        fill: rgba(0, 174, 239, 0);
      }
    </style>
  </defs>
  <g id="Layer_1-2" data-name="Layer 1">
    <g id="checkmark">
      <g>
        <rect class="cls-2" x="38.36" y="33.93" width="105.58" height="103"/>
        <path class="cls-1" d="M81.73,111.18c-1.22,0-2.38-.5-3.21-1.37l-21.38-22.19c-1.66-1.73-1.58-4.45.2-6.07,1.77-1.62,4.56-1.54,6.22.19l18.12,18.84,37-39.49c1.52-1.85,4.29-2.14,6.18-.66,1.89,1.48,2.2,4.19.68,6.03-.11.13-.23.26-.35.38l-40.21,42.92c-.82.89-1.99,1.4-3.21,1.42h-.04Z"/>
      </g>
    </g>
    <g id="shield-outline">
      <g>
        <rect class="cls-2" width="175.07" height="175.07"/>
        <path class="cls-1" d="M87.54,159.39c-2.55.04-5.06-.59-7.29-1.82l-2.19-1.24c-34.7-19.63-56.16-56.42-56.17-96.29v-1.02c-.05-5.26,2.74-10.14,7.29-12.77l51.06-28.74c4.51-2.61,10.08-2.61,14.59,0l51.06,28.74c4.55,2.63,7.34,7.51,7.29,12.77v1.02c-.04,39.9-21.56,76.69-56.31,96.29l-2.19,1.24c-2.19,1.21-4.65,1.84-7.15,1.82ZM87.54,30.27l-51.06,28.74v1.02c.02,34.62,18.7,66.54,48.87,83.52l2.19,1.24,2.19-1.24c30.17-16.98,48.85-48.9,48.87-83.52v-1.02l-51.06-28.74Z"/>
      </g>
    </g>
  </g>
</svg>