<?xml version="1.0" encoding="UTF-8"?>
<svg id="Layer_2" data-name="Layer 2" xmlns="http://www.w3.org/2000/svg" viewBox="0 0 128.21 128.21">
  <defs>
    <style>
      .cls-1 {
        fill: #00aeef;
      }

      .cls-2 {
        fill: rgba(0, 174, 239, 0);
      }
    </style>
  </defs>
  <g id="Layer_1-2" data-name="Layer 1">
    <g id="menu-arrow">
      <g>
        <rect class="cls-2" width="128.21" height="128.21"/>
        <path class="cls-1" d="M107.11,58.76H31.57l6.94-6.89c2.09-2.09,2.09-5.49,0-7.59s-5.49-2.09-7.59,0l-16.03,16.03c-2.09,2.08-2.11,5.46-.03,7.56.01.01.02.02.03.03l16.03,16.03c2.08,2.09,5.46,2.11,7.56.03.01-.01.02-.02.03-.03,2.09-2.08,2.11-5.46.03-7.56-.01-.01-.02-.02-.03-.03l-6.94-6.89h75.54c2.75-.13,4.94-2.33,5.08-5.08v-.27c0-2.85-2.23-5.2-5.08-5.34Z"/>
        <rect class="cls-1" x="16.03" y="90.82" width="96.16" height="10.68" rx=".95" ry=".95"/>
        <rect class="cls-1" x="16.03" y="26.71" width="96.16" height="10.68" rx=".95" ry=".95"/>
      </g>
    </g>
  </g>
</svg>