<?xml version="1.0" encoding="UTF-8"?>
<svg id="Layer_2" data-name="Layer 2" xmlns="http://www.w3.org/2000/svg" viewBox="0 0 247 247">
  <defs>
    <style>
      .cls-1 {
        fill: #00aeef;
      }

      .cls-2 {
        fill: rgba(0, 174, 239, 0);
      }
    </style>
  </defs>
  <g id="Layer_1-2" data-name="Layer 1">
    <g id="clipboard-outline">
      <g>
        <rect class="cls-2" width="247" height="247"/>
        <path class="cls-1" d="M185.25,51.46v-10.29c0-11.37-9.22-20.58-20.58-20.58h-82.33c-11.37,0-20.58,9.22-20.58,20.58v10.29c-17.05,0-30.88,13.82-30.88,30.88v113.21c0,17.05,13.82,30.88,30.88,30.88h123.5c17.05,0,30.88-13.82,30.88-30.88v-113.21c0-17.05-13.82-30.88-30.88-30.88ZM82.33,41.17h82.33v41.17h-82.33v-41.17ZM195.54,195.54c0,5.68-4.61,10.29-10.29,10.29H61.75c-5.68,0-10.29-4.61-10.29-10.29v-113.21c0-5.68,4.61-10.29,10.29-10.29v10.29c0,11.37,9.22,20.58,20.58,20.58h82.33c11.37,0,20.58-9.22,20.58-20.58v-10.29c5.68,0,10.29,4.61,10.29,10.29v113.21Z"/>
      </g>
    </g>
  </g>
</svg>