<?xml version="1.0" encoding="UTF-8"?>
<svg id="Layer_2" data-name="Layer 2" xmlns="http://www.w3.org/2000/svg" viewBox="0 0 238.5 238.5">
  <defs>
    <style>
      .cls-1 {
        fill: #00aeef;
      }

      .cls-2 {
        fill: rgba(0, 174, 239, 0);
      }
    </style>
  </defs>
  <g id="Layer_1-2" data-name="Layer 1">
    <g id="book-open-outline">
      <g>
        <rect class="cls-2" width="238.5" height="238.5"/>
        <path class="cls-1" d="M204.91,41.94c-2.34-1.89-5.41-2.62-8.35-1.99l-77.31,17.39-77.31-17.59c-5.35-1.21-10.67,2.15-11.88,7.5-.18.8-.26,1.62-.24,2.43v121.24c-.12,4.74,3.13,8.9,7.75,9.94l79.5,17.89h4.37l79.5-17.89c4.62-1.04,7.87-5.2,7.75-9.94V49.69c-.01-3.02-1.4-5.88-3.78-7.75ZM49.69,62.11l59.62,13.42v100.87l-59.62-13.42V62.11ZM188.81,162.97l-59.62,13.42v-100.87l59.62-13.42v100.87Z"/>
      </g>
    </g>
  </g>
</svg>