<?xml version="1.0" encoding="UTF-8"?>
<svg id="Layer_2" data-name="Layer 2" xmlns="http://www.w3.org/2000/svg" viewBox="0 0 129.29 129.29">
  <defs>
    <style>
      .cls-1 {
        fill: #00aeef;
      }

      .cls-2 {
        fill: rgba(0, 174, 239, 0);
      }
    </style>
  </defs>
  <g id="Layer_1-2" data-name="Layer 1">
    <g>
      <rect class="cls-2" width="129.29" height="129.29"/>
      <path class="cls-1" d="M64.64,10.77c-2.98,0-5.39,2.41-5.39,5.39v10.77c0,2.98,2.41,5.39,5.39,5.39s5.39-2.41,5.39-5.39v-10.77c0-2.98-2.41-5.39-5.39-5.39Z"/>
      <path class="cls-1" d="M113.12,59.26h-10.77c-2.98,0-5.39,2.41-5.39,5.39s2.41,5.39,5.39,5.39h10.77c2.98,0,5.39-2.41,5.39-5.39s-2.41-5.39-5.39-5.39Z"/>
      <path class="cls-1" d="M32.32,64.64c0-2.98-2.41-5.39-5.39-5.39h-10.77c-2.98,0-5.39,2.41-5.39,5.39s2.41,5.39,5.39,5.39h10.77c2.98,0,5.39-2.41,5.39-5.39Z"/>
      <path class="cls-1" d="M33.51,26.93c-2.19-2.07-5.64-1.97-7.7.22-2.07,2.19-1.97,5.64.22,7.7l7.76,7.49c1.05,1.02,2.47,1.56,3.93,1.51,1.47,0,2.87-.61,3.88-1.67,2.09-2.1,2.09-5.49,0-7.6l-8.08-7.65Z"/>
      <path class="cls-1" d="M91.58,43.85c1.39,0,2.72-.55,3.72-1.51l7.76-7.49c2.06-2.15,1.98-5.56-.17-7.62-1.96-1.87-5-2-7.11-.3l-7.76,7.65c-2.09,2.1-2.09,5.49,0,7.6.93.98,2.2,1.58,3.56,1.67Z"/>
      <path class="cls-1" d="M64.64,96.96c-2.98,0-5.39,2.41-5.39,5.39v10.77c0,2.98,2.41,5.39,5.39,5.39s5.39-2.41,5.39-5.39v-10.77c0-2.98-2.41-5.39-5.39-5.39Z"/>
      <path class="cls-1" d="M95.51,86.94c-2.14-2.07-5.55-2.01-7.62.13-2.07,2.14-2.01,5.55.13,7.62l7.76,7.65c1,.96,2.33,1.5,3.72,1.51,1.46,0,2.86-.57,3.88-1.62,2.11-2.1,2.13-5.51.03-7.62-.01-.01-.02-.02-.03-.03l-7.86-7.65Z"/>
      <path class="cls-1" d="M33.78,86.94l-7.76,7.49c-2.11,2.1-2.13,5.51-.03,7.62.01.01.02.02.03.03,1.02,1.04,2.42,1.62,3.88,1.62,1.33.01,2.61-.47,3.61-1.35l7.76-7.49c2.14-2.07,2.2-5.48.13-7.62-2.07-2.14-5.48-2.2-7.62-.13h0v-.16Z"/>
    </g>
  </g>
</svg>