<?xml version="1.0" encoding="UTF-8"?>
<svg id="Layer_2" data-name="Layer 2" xmlns="http://www.w3.org/2000/svg" viewBox="0 0 242.86 242.86">
  <defs>
    <style>
      .cls-1 {
        fill: #00aeef;
      }

      .cls-2 {
        fill: rgba(0, 174, 239, 0);
      }
    </style>
  </defs>
  <g id="Layer_1-2" data-name="Layer 1">
    <g id="lock">
      <g>
        <rect class="cls-2" width="242.86" height="242.86"/>
        <circle class="cls-1" cx="121.43" cy="151.79" r="10.12"/>
        <path class="cls-1" d="M172.02,80.95h-10.12v-19.12c0-22.35-18.12-40.48-40.48-40.48s-40.48,18.12-40.48,40.48v19.12h-10.12c-16.77,0-30.36,13.59-30.36,30.36v80.95c0,16.77,13.59,30.36,30.36,30.36h101.19c16.77,0,30.36-13.59,30.36-30.36v-80.95c0-16.77-13.59-30.36-30.36-30.36ZM101.19,61.83c-.28-11.48,8.76-21.02,20.24-21.35,11.47.33,20.52,9.88,20.24,21.35v19.13h-40.48v-19.12ZM121.43,182.14c-16.77,0-30.36-13.59-30.36-30.36s13.59-30.36,30.36-30.36,30.36,13.59,30.36,30.36-13.59,30.36-30.36,30.36Z"/>
      </g>
    </g>
  </g>
</svg>