<?xml version="1.0" encoding="UTF-8"?>
<svg id="Layer_2" data-name="Layer 2" xmlns="http://www.w3.org/2000/svg" viewBox="0 0 235.43 235.43">
  <defs>
    <style>
      .cls-1 {
        fill: #00aeef;
      }

      .cls-2 {
        fill: rgba(0, 174, 239, 0);
      }
    </style>
  </defs>
  <g id="Layer_1-2" data-name="Layer 1">
    <g id="activity">
      <g>
        <rect class="cls-2" width="235.43" height="235.43"/>
        <path class="cls-1" d="M140.57,196.19h-2.06c-8.52-.85-15.51-7.12-17.26-15.5l-26.29-121.83-27.07,62.78c-1.57,3.59-5.11,5.9-9.02,5.89h-29.43c-5.42,0-9.81-4.39-9.81-9.81s4.39-9.81,9.81-9.81h22.95l24.62-56.8c4.32-9.94,15.88-14.49,25.82-10.17,5.81,2.53,10.04,7.7,11.36,13.9l26.29,121.74,27.07-62.58c1.5-3.66,5.06-6.06,9.02-6.08h29.43c5.42,0,9.81,4.39,9.81,9.81s-4.39,9.81-9.81,9.81h-22.95l-24.62,56.8c-3.07,7.15-10.08,11.8-17.85,11.87Z"/>
      </g>
    </g>
  </g>
</svg>