<?xml version="1.0" encoding="UTF-8"?>
<svg id="Layer_2" data-name="Layer 2" xmlns="http://www.w3.org/2000/svg" viewBox="0 0 120.36 120.36">
  <defs>
    <style>
      .cls-1 {
        fill: #00aeef;
      }

      .cls-2 {
        fill: rgba(0, 174, 239, 0);
      }
    </style>
  </defs>
  <g id="Layer_1-2" data-name="Layer 1">
    <g id="map">
      <g>
        <rect class="cls-2" width="120.36" height="120.36"/>
        <path class="cls-1" d="M102.35,29.54l-20.06-9.03h-4.11l-18,8.07-18-8.07h-.25l-.6-.45h-3.01l-20.06,9.03c-2.05.79-3.36,2.82-3.21,5.01v61.18c0,1.71.87,3.29,2.31,4.21.81.52,1.75.8,2.71.8.71,0,1.41-.16,2.06-.45l18-8.07,18,8.07h.25c1.14.53,2.47.53,3.61,0h.25l18-8.07,18,8.07c.65.29,1.35.45,2.06.45.96,0,1.9-.28,2.71-.8,1.44-.92,2.3-2.51,2.31-4.21v-61.18c0-1.97-1.16-3.76-2.96-4.56ZM45.13,32.85l10.03,4.46v50.15l-10.03-4.46v-50.15ZM95.28,87.51l-10.03-4.46v-50.15l10.03,4.46v50.15Z"/>
      </g>
    </g>
  </g>
</svg>