<?xml version="1.0" encoding="UTF-8"?>
<svg id="Layer_2" data-name="Layer 2" xmlns="http://www.w3.org/2000/svg" viewBox="0 0 119.43 119.43">
  <defs>
    <style>
      .cls-1 {
        fill: #00aeef;
      }

      .cls-2 {
        fill: rgba(0, 174, 239, 0);
      }
    </style>
  </defs>
  <g id="Layer_1-2" data-name="Layer 1">
    <g id="checkmark-square">
      <g>
        <rect class="cls-2" width="119.43" height="119.43"/>
        <path class="cls-1" d="M99.52,58.87c-2.75,0-4.98,2.23-4.98,4.98v27.72c0,1.65-1.34,2.99-2.99,2.99H27.87c-1.65,0-2.99-1.34-2.99-2.99h0V27.87c0-1.65,1.34-2.99,2.99-2.99h47.62c2.75,0,4.98-2.23,4.98-4.98s-2.23-4.98-4.98-4.98H27.87c-7.13.03-12.91,5.8-12.94,12.94v63.7c.03,7.13,5.8,12.91,12.94,12.94h63.7c7.13-.03,12.91-5.8,12.94-12.94v-27.72c0-2.75-2.23-4.98-4.98-4.98Z"/>
        <path class="cls-1" d="M53.34,54.74c-2.04-1.84-5.19-1.67-7.03.37-1.65,1.83-1.71,4.59-.14,6.49l11.05,11.59c.93.98,2.23,1.54,3.58,1.54,1.35,0,2.64-.53,3.58-1.49l33.74-34.83c1.92-1.98,1.88-5.14-.1-7.07-1.98-1.92-5.14-1.88-7.07.1h0l-30.11,31.15-7.51-7.86Z"/>
      </g>
    </g>
  </g>
</svg>