<?xml version="1.0" encoding="UTF-8"?>
<svg id="Layer_2" data-name="Layer 2" xmlns="http://www.w3.org/2000/svg" xmlns:xlink="http://www.w3.org/1999/xlink" viewBox="0 0 254.29 248">
  <defs>
    <style>
      .cls-1 {
        fill: #4066de;
      }

      .cls-2 {
        fill: url(#linear-gradient-2);
      }

      .cls-2, .cls-3 {
        fill-rule: evenodd;
      }

      .cls-3 {
        fill: url(#linear-gradient);
      }
    </style>
    <linearGradient id="linear-gradient" x1="56.68" y1="149.16" x2="198.26" y2="149.16" gradientUnits="userSpaceOnUse">
      <stop offset="0" stop-color="#45bcf1"/>
      <stop offset=".15" stop-color="#44abed"/>
      <stop offset=".52" stop-color="#4185e5"/>
      <stop offset=".81" stop-color="#406edf"/>
      <stop offset="1" stop-color="#4066de"/>
    </linearGradient>
    <linearGradient id="linear-gradient-2" x1="56.68" y1="98.62" x2="198.26" y2="98.62" xlink:href="#linear-gradient"/>
  </defs>
  <g id="Layer_1-2" data-name="Layer 1">
    <path class="cls-1" d="M127.14,0C56.92,0,0,55.52,0,124s56.92,124,127.14,124,127.14-55.52,127.14-124S197.36,0,127.14,0ZM127.24,236.57c-63.28,0-114.57-50.4-114.57-112.57S63.96,11.43,127.24,11.43s114.57,50.4,114.57,112.57-51.3,112.57-114.57,112.57Z"/>
    <path class="cls-3" d="M170.66,129.13h-86.38c0,25.58,0,51.16,0,76.74l43.19,18.96,70.79-31.07v-85.6s-13.78,0-13.78,0c0,26.55-.04,53.03-.04,79.59-21.48,9.43-35.61,15.63-56.97,25l-29.37-12.89c0-20.08,0-40.15,0-60.23h58.74s0,48.08,0,48.08l13.82-6.06v-52.52ZM170.66,118.66h-86.38s0-10.5,0-10.5h86.38s0,10.5,0,10.5ZM70.46,73.49h-13.78s0,111.04,0,111.04l13.78,7.85c0-39.64,0-79.23,0-118.88Z"/>
    <path class="cls-2" d="M84.28,118.65h86.38V41.91l-43.19-18.96-70.79,31.07v85.6h13.78c0-26.55.04-53.03.04-79.59,21.48-9.43,35.61-15.63,56.97-25l29.37,12.89v60.23h-58.74v-48.08l-13.82,6.06v52.52ZM84.28,129.12h86.38v10.5h-86.38v-10.5ZM184.48,174.29h13.78s0-111.04,0-111.04l-13.78-7.85c0,39.64,0,79.23,0,118.88Z"/>
  </g>
</svg>