<?xml version="1.0" encoding="UTF-8"?>
<svg id="Layer_2" data-name="Layer 2" xmlns="http://www.w3.org/2000/svg" viewBox="0 0 144.43 144.43">
  <defs>
    <style>
      .cls-1 {
        fill: #00aeef;
      }
    </style>
  </defs>
  <g id="Layer_1-2" data-name="Layer 1">
    <path class="cls-1" d="M72.21,0C32.33,0,0,32.33,0,72.21s32.33,72.21,72.21,72.21,72.21-32.33,72.21-72.21S112.1,0,72.21,0ZM79.44,101.1c0,3.99-3.23,7.22-7.22,7.22s-7.22-3.23-7.22-7.22v-36.11c0-3.99,3.23-7.22,7.22-7.22s7.22,3.23,7.22,7.22v36.11ZM72.21,50.55c-3.99,0-7.22-3.23-7.22-7.22s3.23-7.22,7.22-7.22,7.22,3.23,7.22,7.22-3.23,7.22-7.22,7.22Z"/>
  </g>
</svg>