<?xml version="1.0" encoding="UTF-8"?>
<svg id="Layer_2" data-name="Layer 2" xmlns="http://www.w3.org/2000/svg" xmlns:xlink="http://www.w3.org/1999/xlink" viewBox="0 0 254.29 248">
  <defs>
    <style>
      .cls-1 {
        fill: #4066de;
      }

      .cls-2 {
        fill: url(#linear-gradient);
      }
    </style>
    <linearGradient id="linear-gradient" x1="248.76" y1="-338.67" x2="26.47" y2="-394" gradientTransform="translate(0 -246.38) scale(1 -1)" gradientUnits="userSpaceOnUse">
      <stop offset="0" stop-color="#16c8ff"/>
      <stop offset=".17" stop-color="#22abf5"/>
      <stop offset=".39" stop-color="#2f8deb"/>
      <stop offset=".6" stop-color="#3877e3"/>
      <stop offset=".81" stop-color="#3e6adf"/>
      <stop offset="1" stop-color="#4066de"/>
    </linearGradient>
  </defs>
  <g id="Layer_1-2" data-name="Layer 1">
    <path class="cls-2" d="M193.99,163.92c7.73-12.49,11.82-26.89,11.82-41.58s-4.09-29.09-11.82-41.58l.36-.35c3.22-3.36,4.99-7.84,4.94-12.49s-1.92-9.1-5.21-12.39c-3.29-3.29-7.74-5.16-12.39-5.21-4.65-.05-9.14,1.72-12.49,4.94l-.23.23c-12.52-7.91-27.02-12.14-41.83-12.21-14.81-.07-29.35,4.02-41.94,11.81-3.34-3.24-7.82-5.04-12.47-5.02-4.65.02-9.11,1.87-12.42,5.14-3.31,3.27-5.2,7.71-5.27,12.36-.07,4.65,1.68,9.15,4.88,12.52-7.97,12.64-12.2,27.28-12.2,42.23s4.23,29.58,12.2,42.22c-3.2,3.37-4.96,7.87-4.88,12.52.07,4.65,1.97,9.09,5.27,12.36,3.31,3.27,7.77,5.12,12.42,5.14,4.65.02,9.13-1.78,12.47-5.02,12.6,7.79,27.13,11.88,41.94,11.81,14.81-.07,29.31-4.3,41.83-12.21l.23.23c1.64,1.71,3.6,3.08,5.77,4.02,2.17.94,4.51,1.44,6.88,1.46,2.37.03,4.72-.42,6.91-1.32,2.19-.89,4.18-2.22,5.86-3.89s3-3.67,3.89-5.86c.89-2.19,1.34-4.54,1.32-6.91-.03-2.37-.52-4.71-1.46-6.88-.94-2.17-2.31-4.14-4.02-5.77l-.36-.35ZM199.23,122.34c.01,11.99-2.97,23.79-8.66,34.34,0-10.24-3.43-22.2-9.88-34.34,6.59-12.14,9.88-24.09,9.88-34.34,5.7,10.55,8.67,22.35,8.66,34.34ZM170.65,66.59c.27-2.23,1.19-4.34,2.65-6.04.18-.21.38-.43.58-.63.2-.21.41-.41.64-.59,2.15-1.81,4.91-2.75,7.72-2.62,2.81.13,5.47,1.31,7.45,3.31,1.98,2,3.14,4.67,3.24,7.48.1,2.81-.86,5.56-2.69,7.69-.16.2-.35.4-.53.58-.28.28-.58.54-.89.79-1.23,1.02-2.68,1.74-4.23,2.12-.6.16-1.22.27-1.84.31-.31.02-.63.02-.94,0-1.47,0-2.93-.29-4.29-.85-1.36-.56-2.59-1.39-3.64-2.43-1.04-1.04-1.87-2.28-2.43-3.64-.56-1.36-.85-2.82-.85-4.29,0-.4,0-.8.05-1.2ZM169.2,80.41c1.65,1.66,3.61,2.97,5.77,3.87,2.16.9,4.47,1.36,6.81,1.35.73,0,1.45-.05,2.17-.13.64,8.58-1.94,19.1-7.26,30.05-5.48-8.68-11.92-16.72-19.2-23.96-7.25-7.29-15.3-13.74-23.99-19.22,9.65-4.68,19.12-7.25,27.47-7.25,1.1,0,2.16,0,3.18.15-.4,2.74-.15,5.54.73,8.17.88,2.63,2.36,5.01,4.33,6.97ZM173.07,122.34c-5.59,9.53-12.38,18.3-20.22,26.09-7.78,7.86-16.55,14.68-26.09,20.29-9.53-5.61-18.3-12.43-26.09-20.29-7.84-7.79-14.64-16.56-20.24-26.09,11.32-19.09,27.24-35.04,46.33-46.38,9.53,5.61,18.3,12.43,26.09,20.29,7.84,7.78,14.64,16.55,20.22,26.09ZM126.76,49.88c11.99-.01,23.79,2.97,34.34,8.66h-.13c-10.21,0-22.1,3.44-34.2,9.88-12.09-6.47-23.99-9.88-34.22-9.88h-.12c10.55-5.7,22.35-8.67,34.34-8.66ZM85.36,80.41c1.96-1.97,3.42-4.38,4.28-7.02.86-2.64,1.08-5.45.66-8.2h2.17c8.35,0,17.8,2.57,27.47,7.25-17.37,11.03-32.1,25.75-43.13,43.11-5.35-11.02-7.94-21.61-7.25-30.22,1.09.2,2.19.3,3.29.3,4.69-.02,9.19-1.9,12.5-5.22ZM64.86,59.92c1.92-1.92,4.46-3.07,7.17-3.25,2.7-.18,5.38.62,7.54,2.27.4.3.78.63,1.14.99.12.11.23.23.33.36,1.08,1.15,1.89,2.53,2.37,4.03.23.66.38,1.34.46,2.03.08.52.12,1.04.12,1.56,0,1.47-.29,2.93-.85,4.29-.56,1.36-1.39,2.6-2.43,3.64-1.04,1.04-2.28,1.87-3.64,2.43-1.36.56-2.82.85-4.29.85-.65,0-1.3-.05-1.94-.18-.56-.09-1.11-.23-1.65-.43-1.57-.53-3.01-1.41-4.2-2.57l-.1-.1c-.39-.39-.75-.81-1.07-1.25-1.46-1.92-2.25-4.27-2.24-6.69-.01-1.48.27-2.95.84-4.32.56-1.37,1.39-2.61,2.44-3.66ZM54.3,122.34c-.01-11.99,2.97-23.79,8.66-34.34,0,10.24,3.41,22.18,9.88,34.34-6.5,12.15-9.88,24.09-9.88,34.34-5.7-10.55-8.67-22.35-8.66-34.34ZM83.95,178.33c-.09.67-.24,1.32-.46,1.96-.48,1.53-1.3,2.93-2.4,4.1-.1.13-.21.25-.33.36-.35.36-.73.69-1.14.99-2.16,1.64-4.83,2.45-7.54,2.27-2.7-.18-5.25-1.34-7.17-3.25-1.05-1.04-1.88-2.27-2.44-3.63-.57-1.36-.86-2.82-.85-4.29-.03-2.43.75-4.8,2.21-6.74.31-.44.66-.85,1.04-1.24l.1-.1c1.19-1.16,2.63-2.04,4.2-2.57.53-.2,1.08-.34,1.65-.43.67-.12,1.36-.16,2.04-.13,1.47,0,2.93.29,4.29.85,1.36.56,2.59,1.39,3.64,2.43s1.87,2.28,2.43,3.64c.56,1.36.85,2.82.85,4.29-.02.5-.08,1-.18,1.5h.08ZM85.45,164.2c-1.66-1.65-3.62-2.95-5.79-3.83-2.16-.88-4.48-1.33-6.81-1.32-1.1,0-2.21.09-3.29.3-.69-8.61,1.89-19.2,7.25-30.22,5.48,8.69,11.93,16.72,19.22,23.96,7.25,7.29,15.3,13.74,23.99,19.22-9.67,4.68-19.17,7.25-27.4,7.25h-2.17c.42-2.77.18-5.59-.71-8.25-.88-2.66-2.38-5.07-4.37-7.03l.08-.07ZM126.76,194.8c-11.99.01-23.79-2.97-34.34-8.66h.18c10.21,0,22.12-3.46,34.22-9.88,12.1,6.49,23.99,9.88,34.2,9.88h.13c-10.57,5.71-22.39,8.68-34.4,8.66ZM164.16,179.4c-1.02.1-2.09.15-3.19.15-8.35,0-17.82-2.57-27.47-7.25,8.7-5.48,16.75-11.93,23.99-19.22,7.28-7.24,13.72-15.28,19.2-23.96,5.32,10.95,7.9,21.41,7.26,30.05-.72-.08-1.45-.13-2.17-.13-2.55,0-5.08.55-7.4,1.62-2.32,1.06-4.39,2.61-6.06,4.54-1.67,1.93-2.91,4.2-3.63,6.65-.72,2.45-.9,5.03-.54,7.55ZM189.77,184.75c-1.99,1.99-4.66,3.16-7.48,3.27-2.81.11-5.57-.84-7.71-2.67-.23-.18-.44-.38-.64-.59-.21-.19-.41-.41-.58-.64-1.1-1.27-1.89-2.77-2.31-4.4-.15-.54-.25-1.09-.31-1.65-.03-.42-.03-.83,0-1.25,0-1.47.29-2.93.85-4.29.56-1.36,1.39-2.59,2.43-3.64,1.04-1.04,2.28-1.86,3.64-2.43,1.36-.56,2.82-.85,4.29-.85.31-.02.63-.02.94,0,.62.05,1.24.15,1.84.31,1.55.38,3,1.11,4.23,2.12.31.25.61.51.89.79.18.18.36.38.53.58,1.88,2.15,2.87,4.93,2.75,7.79-.11,2.85-1.32,5.55-3.36,7.54Z"/>
    <path class="cls-1" d="M127.14,0C56.92,0,0,55.52,0,124s56.92,124,127.14,124,127.14-55.52,127.14-124S197.36,0,127.14,0ZM127.24,236.57c-63.28,0-114.57-50.4-114.57-112.57S63.96,11.43,127.24,11.43s114.57,50.4,114.57,112.57-51.3,112.57-114.57,112.57Z"/>
  </g>
</svg>